<?xml version="1.0" encoding="UTF-8"?>
<svg viewBox="0 0 341 86" xmlns="http://www.w3.org/2000/svg" xmlns:xlink="http://www.w3.org/1999/xlink">
 <defs>
  <linearGradient id="a">
   <stop stop-opacity=".50196" offset="0"/>
   <stop stop-opacity="0" offset="1"/>
  </linearGradient>
  <linearGradient id="f" x1="-309.63" x2="-230.4" y1="217.94" y2="196.71" gradientUnits="userSpaceOnUse">
   <stop offset="0"/>
   <stop stop-opacity="0" offset="1"/>
  </linearGradient>
  <linearGradient id="e" x1="324.18" x2="294.35" y1="311.52" y2="200.18" gradientUnits="userSpaceOnUse">
   <stop stop-color="#2040ff" offset="0"/>
   <stop stop-color="#40c0ff" offset="1"/>
  </linearGradient>
  <linearGradient id="d" x1="-226.7" x2="-275.61" y1="362.83" y2="375.94" gradientUnits="userSpaceOnUse">
   <stop offset="0"/>
   <stop stop-color="#fff" offset="1"/>
  </linearGradient>
  <linearGradient id="c" x1="291.86" x2="308.46" y1="209.02" y2="267.57" gradientUnits="userSpaceOnUse">
   <stop stop-color="#fff" offset="0"/>
   <stop stop-color="#3060ff" offset="1"/>
  </linearGradient>
  <linearGradient id="b" x1="-262.05" x2="-201.47" y1="273.23" y2="257" gradientUnits="userSpaceOnUse">
   <stop stop-color="#2040ff" offset="0"/>
   <stop stop-color="#a0e0ff" stop-opacity="0" offset="1"/>
  </linearGradient>
  <linearGradient id="h" x1="-232.11" x2="-247.35" y1="216" y2="220.09" gradientUnits="userSpaceOnUse" xlink:href="#a"/>
  <linearGradient id="g" x1="-257.69" x2="-272.23" y1="216" y2="219.9" gradientUnits="userSpaceOnUse" xlink:href="#a"/>
 </defs>
 <g transform="translate(-187 -209.36)">
  <path transform="rotate(-90)" d="m-289.86 292.5v-35h75v35" fill="url(#b)" fill-rule="evenodd" stroke="#000"/>
  <path d="m487 209.36c23.46 0 40.5 19.54 40.5 43s-17.04 43-40.5 43h-195v-86h195z" fill="url(#e)" fill-rule="evenodd" stroke="#000"/>
  <path d="m292 285.36v-10c-15 0-24-10-24-22.5s9-22.5 24-22.5v-10h185c21.326 0 40.083 13.595 40.083 31.552s-18.757 33.448-40.083 33.448h-185z" fill="url(#c)" fill-rule="evenodd" stroke="#000"/>
  <path transform="rotate(-90)" d="m-252.36 336.5a7.5 7.5 0 0 1 7.5 7.5v125a7.5 7.5 0 0 1 -7.5 7.5 7.5 7.5 0 0 1 -7.5 -7.5v-125a7.5 7.5 0 0 1 7.5 -7.5" fill="url(#d)" fill-rule="evenodd" stroke="#000"/>
  <path transform="rotate(-90)" d="m-280.17 187.5h55v70h-55z" fill="url(#f)" fill-rule="evenodd" stroke="#000"/>
  <path d="m216.11 262.27h7.894v1.9959h-7.894v1.9959h7.894v1.9959h-7.894" fill="none" stroke="#fce78b" stroke-opacity=".74161" stroke-width=".4"/>
  <path transform="rotate(-90)" d="m-270.16 216.5h10.5a1 1 0 0 1 1 1v5.5a1 1 0 0 1 -1 1h-10.5a1 1 0 0 1 -1 -1v-5.5a1 1 0 0 1 1 -1" fill="url(#g)" fill-rule="evenodd" stroke="#000"/>
  <path d="m216.11 237.27h7.894v1.9959h-7.894v1.9959h7.894v1.9959h-7.894" fill="none" stroke="#fce78b" stroke-opacity=".74161" stroke-width=".4"/>
  <path transform="rotate(-90)" d="m-244.86 216.5h10.5a1 1 0 0 1 1 1v5.5a1 1 0 0 1 -1 1h-10.5a1 1 0 0 1 -1 -1v-5.5a1 1 0 0 1 1 -1" fill="url(#h)" fill-rule="evenodd" stroke="#000"/>
 </g>
</svg>
